<!-- Generated by IcoMoon.io -->
<svg version="1.1" xmlns="http://www.w3.org/2000/svg" width="31" height="32" viewBox="0 0 31 32">
<title>arrival</title>
<path d="M0 0h1.976l0.995 23.995h27.735v2h-28.725l-0.99-24.995h-0.99zM13.868 29c-0.020 1.639-1.335 2.964-2.968 3l-0.003 0c-1.632-0.033-2.941-1.364-2.941-3s1.31-2.967 2.938-3l0.003-0c1.636 0.036 2.951 1.361 2.971 2.997l0 0.002zM27.735 29c-0.016 1.629-1.34 2.942-2.971 2.942-1.641 0-2.971-1.33-2.971-2.971s1.33-2.971 2.971-2.971v0c1.637 0.036 2.952 1.361 2.971 2.999l0 0.002zM6.933 10v2h16.839v-2zM7.924 22h14.857v-9h-14.857zM12.877 13.997h4.952v1h-4.952z"></path>
</svg>
