<!-- Generated by IcoMoon.io -->
<svg version="1.1" xmlns="http://www.w3.org/2000/svg" width="34" height="32" viewBox="0 0 34 32">
<title>canceled</title>
<path fill="#717373" d="M0.092 6.876v0l-0.092 0.021 0.092 0.046v18.638l17.152 6.418 17.131-6.418v-18.727l-0.248 0.089 0.184-0.067-17.131-6.876zM2.078 7.901l15-5.748 14.965 5.734-15.007 5.755zM2.376 20.667v-9.22l11.348 4.567v9.135zM4.613 18.383l6.918 2.674v-2.649l-6.918-2.578v2.557zM2.078 7.901l15-5.748 14.965 5.734-15.007 5.755z"></path>
<path fill="#ee3e25" d="M3.784 16.223c0 0.001 0 0.002 0 0.004 0 7.305 5.919 13.226 13.223 13.23h0c0.001 0 0.002 0 0.004 0 7.301 0 13.22-5.919 13.22-13.22 0-0.001 0-0.002 0-0.004v0c0-0.001 0-0.002 0-0.004 0-7.301-5.919-13.22-13.22-13.22-0.001 0-0.002 0-0.004 0h0c-7.301 0.004-13.219 5.922-13.223 13.223zM12 7.723c1.429-0.879 3.157-1.405 5.007-1.418l0.004-0c5.484 0 9.929 4.445 9.929 9.929v0c-0.011 1.853-0.537 3.58-1.443 5.049l0.024-0.042zM7.092 16.234c0.020-1.852 0.545-3.578 1.443-5.051l-0.025 0.044 13.521 13.521c-1.427 0.88-3.154 1.407-5.004 1.418l-0.003 0c-5.484 0-9.929-4.445-9.929-9.929v0z"></path>
</svg>
