<!-- Generated by IcoMoon.io -->
<svg version="1.1" xmlns="http://www.w3.org/2000/svg" width="37" height="32" viewBox="0 0 37 32">
<title>cancel-stop</title>
<path fill="#fff" d="M0 0h1.873l0.943 22.734h26.278v1.895h-27.216l-0.938-23.682h-0.938zM13.139 27.476c-0.019 1.553-1.265 2.809-2.812 2.843-1.549-0.031-2.79-1.292-2.79-2.842s1.241-2.811 2.784-2.842c1.553 0.034 2.799 1.289 2.818 2.84zM26.278 27.476c-0.016 1.543-1.27 2.788-2.815 2.788-1.555 0-2.815-1.26-2.815-2.815s1.26-2.815 2.815-2.815c1.551 0.034 2.797 1.29 2.815 2.841zM6.569 9.475v1.895h15.955v-1.895zM7.508 20.844h14.077v-8.528h-14.077zM12.201 13.262h4.692v0.947h-4.692z"></path>
<path fill="#ee3e25" d="M18.431 22.885c0 0.001 0 0.001 0 0.002 0 5.031 4.077 9.109 9.107 9.113h0c0.001 0 0.001 0 0.002 0 5.028 0 9.105-4.076 9.105-9.105 0-0.001 0-0.002 0-0.002v0c0-0.001 0-0.001 0-0.002 0-5.028-4.076-9.105-9.105-9.105-0.001 0-0.002 0-0.002 0h0c-5.028 0.003-9.104 4.079-9.107 9.107zM24.090 17.031c0.984-0.605 2.174-0.967 3.448-0.977l0.003-0c3.777 0 6.839 3.062 6.839 6.839v0c-0.008 1.276-0.37 2.466-0.994 3.478l0.017-0.029zM20.71 22.893c0.014-1.276 0.375-2.464 0.994-3.479l-0.017 0.030 9.313 9.313c-0.983 0.607-2.173 0.969-3.447 0.977h-0.002c-3.777 0-6.839-3.062-6.839-6.839v0z"></path>
</svg>
