<!-- Generated by IcoMoon.io -->
<svg version="1.1" xmlns="http://www.w3.org/2000/svg" width="42" height="32" viewBox="0 0 42 32">
<title>cloned-stop</title>
<path fill="#717373" d="M0.101 24.389v-17.768l-0.101-0.034 0.101-0.034 16.248-6.553 16.349 6.519-0.169 0.067 0.237-0.067v17.869l-16.315 6.114zM2.263 19.693l10.809 4.29v-8.715l-10.809-4.357zM1.992 7.533v0l2.903-1.114zM4.391 17.498v-2.432l6.587 2.432v2.533z"></path>
<path fill="#00b1eb" d="M41.509 19.472c0 6.919-5.609 12.528-12.528 12.528s-12.528-5.609-12.528-12.528c0-6.919 5.609-12.528 12.528-12.528s12.528 5.609 12.528 12.528z"></path>
<path fill="#fff" d="M34.148 25.376l-1.5-3.623h-7.12l-1.728 3.623h10.348zM35.955 26.584h-14.068l2.88-6.038h8.689l2.499 6.038z"></path>
<path fill="#fff" d="M25.208 16.915c0 2.269 3.782 7.563 3.782 7.563v0s3.781-5.294 3.781-7.639v0c0-4.387-3.781-4.462-3.781-4.462v0s-3.782 0.075-3.782 4.538zM27.477 16.159c0.003-0.834 0.678-1.51 1.512-1.512h0c0.834 0.002 1.51 0.678 1.513 1.512v0c-0.002 0.834-0.678 1.51-1.512 1.513h-0c-0.834-0.002-1.51-0.678-1.513-1.512v-0z"></path>
</svg>
