<!-- Generated by IcoMoon.io -->
<svg version="1.1" xmlns="http://www.w3.org/2000/svg" width="32" height="32" viewBox="0 0 32 32">
<title>clone-stop</title>
<path fill="#fff" d="M21.143 0c-3.771-0.114-7.314 1.714-9.257 4.914l5.943 3.771c1.143-1.829 3.657-2.514 5.486-1.257 1.829 1.143 2.514 3.657 1.257 5.486s-3.657 2.514-5.486 1.257c-0.571-0.343-1.029-0.8-1.257-1.257l-6.286 4c2.857 7.771 9.6 14.971 9.6 14.971s10.857-11.429 10.857-21.029c0.229-5.714-4.114-10.629-9.829-10.857-0.343 0-0.686 0-1.029 0z"></path>
<path fill="#fff" d="M8.114 19.086v-4.8h-4v-6.857h4v-4.8l2.286 1.486c0.914-1.486 2.057-2.743 3.429-3.657-0.914-0.343-1.943-0.457-2.971-0.457-5.714-0.229-10.629 4.114-10.857 9.829v1.029c0 9.6 10.857 21.143 10.857 21.143 1.486-1.6 2.857-3.314 4.114-5.029-1.943-2.857-3.657-5.829-4.914-9.029z"></path>
<path fill="#fff" d="M17.714 10.857l-8-5.143v3.429h-4v3.429h4v3.429z"></path>
</svg>
