<!-- Generated by IcoMoon.io -->
<svg version="1.1" xmlns="http://www.w3.org/2000/svg" width="37" height="32" viewBox="0 0 37 32">
<title>computer</title>
<path fill="#ebebeb" d="M2.284 0c-1.26 0.003-2.281 1.024-2.284 2.284v20.573c0.003 1.26 1.024 2.281 2.284 2.284h11.431v2.284h0.228c-0.071-0.005-0.154-0.007-0.237-0.007-0.958 0-1.834 0.348-2.509 0.925l0.005-0.004-1.827 2.284c-0.685 0.685 0.228 1.371 2.056 1.371h13.484c1.827 0 2.741-0.685 2.284-1.599v0l-1.599-2.284c-0.792-0.432-1.735-0.685-2.737-0.685-0.002 0-0.003 0-0.005 0h0v-2.284h11.428c0.038 0.002 0.083 0.004 0.128 0.004 1.193 0 2.16-0.967 2.16-2.16 0-0.045-0.001-0.090-0.004-0.134l0 0.006v-20.573c0.002-0.038 0.004-0.083 0.004-0.128 0-1.193-0.967-2.16-2.16-2.16-0.045 0-0.090 0.001-0.134 0.004l-31.996-0zM2.284 2.284h32.002v20.573h-32.002z"></path>
</svg>
