<!-- Generated by IcoMoon.io -->
<svg version="1.1" xmlns="http://www.w3.org/2000/svg" width="43" height="32" viewBox="0 0 43 32">
<title>driving</title>
<path fill="#fff" d="M28.26 26.265c0.001-0.39 0.043-0.77 0.122-1.136l-8.915 0.035c0.075 0.323 0.117 0.695 0.117 1.076 0 0.009-0 0.017-0 0.026-0.044 3.133-2.596 5.657-5.736 5.657s-5.692-2.524-5.736-5.654c0.001-0.394 0.044-0.774 0.124-1.14l-5.261 0.035v-5.523h23.079v-16.456h13.109l2.761 9.328v7.127h0.908c0.254 0.004 0.46 0.209 0.463 0.463v4.597c-0.004 0.254-0.209 0.46-0.463 0.463h-3.224c0.073 0.323 0.115 0.695 0.115 1.076 0 0.009-0 0.017-0 0.026 0 3.166-2.568 5.734-5.736 5.734s-5.736-2.568-5.736-5.736zM31.234 26.265c0 1.525 1.236 2.761 2.762 2.761s2.761-1.236 2.761-2.761c0-1.525-1.236-2.761-2.761-2.761-0.002 0-0.003 0-0.005 0-1.525 0-2.761 1.236-2.761 2.761 0 0 0 0 0 0zM11.092 26.265c0 1.525 1.236 2.761 2.761 2.761s2.761-1.236 2.761-2.761c0-1.525-1.236-2.761-2.761-2.761-0.002 0-0.003 0-0.005 0-1.525 0-2.761 1.236-2.761 2.761 0 0 0 0 0 0zM32.020 12.787h7.242l-1.762-6.568h-5.48zM4.133 14.888v-2.746h16.435v2.742zM0 9.386v-2.627h20.567v2.627zM4.133 3.167v-3.167h24.127v3.167z"></path>
</svg>
