<!-- Generated by IcoMoon.io -->
<svg version="1.1" xmlns="http://www.w3.org/2000/svg" width="24" height="32" viewBox="0 0 24 32">
<title>key</title>
<path fill="#e1e1e1" d="M2 0c-0.034-0.002-0.073-0.003-0.113-0.003-1.044 0-1.89 0.846-1.89 1.89 0 0.040 0.001 0.079 0.004 0.118l-0-0.005v12.001c0.003 1.103 0.896 1.997 1.999 2h4.001v12c0.007 2.207 1.794 3.993 4 4h4.001c2.207-0.007 3.993-1.794 4-4v-2h-4v-2h4v-2h-4v-2.005h4v-2h-4v-2h8.001c1.073-0.075 1.924-0.927 1.999-1.993l0-0.007v-11.998c-0.003-1.104-0.897-1.997-2-2h-20zM3.999 7c0.042-1.64 1.36-2.958 2.997-2.999l10.004-0c1.638 0.043 2.955 1.361 2.996 2.996l0 0.004c-0.041 1.64-1.36 2.959-2.997 3l-10 0c-1.64-0.042-2.958-1.36-2.999-2.997zM8.001 26.996v-11.996c-0.001-0.017-0.002-0.037-0.002-0.056 0-0.522 0.423-0.945 0.945-0.945 0.020 0 0.040 0.001 0.059 0.002l-0.003-0c0.017-0.001 0.037-0.002 0.056-0.002 0.522 0 0.945 0.423 0.945 0.945 0 0.020-0.001 0.040-0.002 0.059l0-0.003v12c0.001 0.017 0.002 0.037 0.002 0.056 0 0.522-0.423 0.945-0.945 0.945-0.020 0-0.040-0.001-0.059-0.002l0.003 0c-0.017 0.001-0.037 0.002-0.056 0.002-0.522 0-0.945-0.423-0.945-0.945 0-0.020 0.001-0.040 0.002-0.059z"></path>
</svg>
