<!-- Generated by IcoMoon.io -->
<svg version="1.1" xmlns="http://www.w3.org/2000/svg" width="43" height="32" viewBox="0 0 43 32">
<title>leave-white</title>
<path fill="#fff" d="M0 6.803h20.586v2.629h-20.586z"></path>
<path fill="#fff" d="M4.137 13.223h16.449v2.746h-16.449z"></path>
<path fill="#fff" d="M42.881 19.633h-0.909v-7.133l-2.765-9.337h-10.937v-3.163h-24.149v3.17h21.959v16.461h-23.103v5.526h5.258c-0.073 0.33-0.114 0.709-0.114 1.098 0 0.001 0 0.003 0 0.004v-0c0 3.171 2.571 5.742 5.742 5.742s5.742-2.571 5.742-5.742v0c0-0.010 0-0.021 0-0.032 0-0.379-0.042-0.748-0.121-1.103l0.006 0.034h8.916c-0.073 0.33-0.114 0.709-0.114 1.098 0 0.002 0 0.003 0 0.004v-0c0 3.171 2.571 5.742 5.742 5.742s5.742-2.571 5.742-5.742v0c0-0.010 0-0.021 0-0.033 0-0.379-0.042-0.748-0.121-1.103l0.006 0.034h3.229c0.254-0.004 0.459-0.21 0.463-0.464v-4.601c-0.006-0.255-0.214-0.458-0.47-0.458-0.001 0-0.002 0-0.003 0h0zM13.857 29.029c-1.527-0.001-2.764-1.238-2.764-2.765 0-0 0-0.001 0-0.001v0c0 0 0 0 0 0 0-1.525 1.235-2.761 2.759-2.764h0c1.527 0 2.765 1.238 2.765 2.765s-1.238 2.765-2.765 2.765v0zM34.026 29.029c-1.527-0.001-2.764-1.238-2.764-2.765 0-0 0-0.001 0-0.001v0c0.001-1.526 1.238-2.763 2.764-2.763 0 0 0.001 0 0.001 0h-0c1.527 0 2.765 1.238 2.765 2.765s-1.238 2.765-2.765 2.765v0zM32.055 12.771v-6.572h5.487l1.759 6.572z"></path>
</svg>
