<!-- Generated by IcoMoon.io -->
<svg version="1.1" xmlns="http://www.w3.org/2000/svg" width="37" height="32" viewBox="0 0 37 32">
<title>lunch</title>
<path fill="#fff" d="M18.4 12.533v0l-12-12c-0.26-0.248-0.612-0.4-1-0.4s-0.74 0.152-1.001 0.401l-3.998 4c-0.248 0.26-0.4 0.612-0.4 1s0.152 0.74 0.401 1.001l14.132 14.133c0.26 0.248 0.612 0.4 1 0.4s0.74-0.152 1.001-0.401l1.066-1.066 12.134 12c0.26 0.248 0.612 0.4 1 0.4s0.74-0.152 1.001-0.401l1.999-2c0.248-0.26 0.4-0.612 0.4-1s-0.152-0.74-0.401-1.001zM15.999 22.133c-0.26 0.248-0.612 0.4-1 0.4s-0.74-0.152-1.001-0.401l-1.333-1.333-7.066 7.067c-0.247 0.235-0.4 0.566-0.4 0.933s0.153 0.698 0.399 0.933l1.867 1.867c0.235 0.247 0.566 0.4 0.933 0.4s0.698-0.153 0.933-0.399l9.068-9.068-1.466-1.467zM36.8 6.134l-0.933-1.067-9.466 9.466-0.933-0.933 9.466-9.466-1.867-1.867-9.466 9.466-0.933-0.933 9.333-9.466-0.933-0.933c-0.235-0.247-0.566-0.4-0.933-0.4s-0.698 0.153-0.933 0.399l-10.534 10.534 7.601 7.601 10.533-10.533c0.247-0.235 0.401-0.566 0.401-0.933s-0.154-0.699-0.401-0.934z"></path>
</svg>
