<!-- Generated by IcoMoon.io -->
<svg version="1.1" xmlns="http://www.w3.org/2000/svg" width="32" height="32" viewBox="0 0 32 32">
<title>map-current-position</title>
<path fill="#0349f0" d="M16.001 8.381c4.208 0 7.619 3.411 7.619 7.619s-3.411 7.619-7.619 7.619c-4.208 0-7.619-3.411-7.619-7.619v0c0-4.208 3.411-7.619 7.619-7.619v0z"></path>
<path fill="rgba(255, 255, 255, 0.5)" d="M16.001 8.381c-4.208 0-7.619 3.411-7.619 7.619s3.411 7.619 7.619 7.619c4.208 0 7.619-3.411 7.619-7.619s-3.411-7.619-7.619-7.619zM16.001 6.857c2.442 0 4.738 0.951 6.465 2.678s2.678 4.023 2.678 6.465c0 2.442-0.951 4.738-2.678 6.465s-4.023 2.678-6.465 2.678c-2.442 0-4.738-0.951-6.465-2.678s-2.678-4.023-2.678-6.465c0-2.442 0.951-4.738 2.678-6.465s4.023-2.678 6.465-2.678z"></path>
<path fill="#fff" d="M19.81 16c0 2.104-1.706 3.81-3.81 3.81s-3.81-1.706-3.81-3.81c0-2.104 1.706-3.81 3.81-3.81s3.81 1.706 3.81 3.81z"></path>
</svg>
