<!-- Generated by IcoMoon.io -->
<svg version="1.1" xmlns="http://www.w3.org/2000/svg" width="33" height="32" viewBox="0 0 33 32">
<title>more</title>
<path d="M10.291 21.764c0 2.303-1.867 4.17-4.17 4.17s-4.17-1.867-4.17-4.17c0-2.303 1.867-4.17 4.17-4.17s4.17 1.867 4.17 4.17z"></path>
<path d="M20.904 21.764c0 2.303-1.867 4.17-4.17 4.17s-4.17-1.867-4.17-4.17c0-2.303 1.867-4.17 4.17-4.17s4.17 1.867 4.17 4.17z"></path>
<path d="M31.517 21.764c0 2.303-1.867 4.17-4.17 4.17s-4.17-1.867-4.17-4.17c0-2.303 1.867-4.17 4.17-4.17s4.17 1.867 4.17 4.17z"></path>
</svg>
