<!-- Generated by IcoMoon.io -->
<svg version="1.1" xmlns="http://www.w3.org/2000/svg" width="32" height="32" viewBox="0 0 32 32">
<title>no-resuts</title>
<path fill="#95989a" d="M24.403 21.213h-0.801l-1.285-1.284c1.576-2.060 2.526-4.673 2.526-7.508 0-6.86-5.561-12.421-12.421-12.421s-12.421 5.561-12.421 12.421c0 6.86 5.561 12.421 12.421 12.421 2.835 0 5.447-0.949 7.538-2.548l-0.030 0.022 1.284 1.285v0.799l7.598 7.599 3.194-3.19zM12.46 21.503c-0 0-0.001 0-0.001 0-3.237 0-6.076-1.702-7.671-4.261l-0.022-0.038 1.952-1.952 2.067 2.067 3.080-3.074 2.701 1.162 0.507-0.929-2.478-1.701 1.6-5.645-0.785-0.244-2.25 4.894-0.4 0.4-0.008-0.008-1.966 1.964-2.072-2.072-2.936 2.937c-0.074-0.232-0.149-0.535-0.209-0.843l-0.009-0.057c-0.094-0.493-0.148-1.061-0.148-1.641 0-0.001 0-0.002 0-0.004v0c0-4.996 4.050-9.045 9.045-9.045s9.045 4.050 9.045 9.045c0 4.996-4.050 9.045-9.045 9.045v0z"></path>
</svg>
