<!-- Generated by IcoMoon.io -->
<svg version="1.1" xmlns="http://www.w3.org/2000/svg" width="20" height="32" viewBox="0 0 20 32">
<title>phone</title>
<path fill="#ebebeb" d="M2 0c-0.034-0.002-0.073-0.003-0.113-0.003-1.044 0-1.89 0.846-1.89 1.89 0 0.040 0.001 0.079 0.004 0.119l-0-0.005v28c0.075 1.073 0.927 1.925 1.993 2l16.007 0c1.073-0.075 1.925-0.927 2-1.993l0-0.007v-24c0-1.105-0.895-2-2-2h-14v-2c0.002-0.034 0.003-0.073 0.003-0.113 0-1.044-0.846-1.89-1.89-1.89-0.040 0-0.079 0.001-0.119 0.004zM2 6h16v9.8h-16zM14 18h4v2h-4zM8 18h4v2h-4zM2 18h4v2h-4zM14 22h4v2h-4zM8 22h4v2h-4zM2 22h4v2h-4zM14 26h4v2h-4zM8 26h4v2h-4zM2 26h4v2h-4z"></path>
</svg>
