<!-- Generated by IcoMoon.io -->
<svg version="1.1" xmlns="http://www.w3.org/2000/svg" width="32" height="32" viewBox="0 0 32 32">
<title>planet</title>
<path fill="#ebebeb" d="M0 16c0.027 8.826 7.174 15.973 15.997 16h0.003c8.826-0.027 15.973-7.174 16-15.997v-0.003c-0.027-8.826-7.174-15.973-15.997-16h-0.003c-8.826 0.027-15.973 7.174-16 15.997zM15.001 2.199h-0.2c0 0.2 0 0.2 0.2 0v0c-0.2 0.2 0 0.2 0 0h0.4c0 0.11-0.089 0.2-0.2 0.2v0 0.2c0-0.11 0.089-0.2 0.2-0.2h0.4v0.4h-0.2v0.2h0.2v0.6h-0.2v0.2h-0.2v0.2h-0.2v0.2l0.2-0.2h0.6c-0.11 0-0.2 0.089-0.2 0.2h-0.6v0.2h-0.2c-0.11 0-0.2 0.090-0.2 0.2h-0.8v-0.2 3.598h0.2v-0.2h-0.2c0.11 0 0.2-0.090 0.2-0.2v0-0.2l0.2-0.2h-0.6v-0.4h-0.6v-0.2h0.6v-0.2c0 0.11 0.089 0.2 0.2 0.2h0.2c0.11 0 0.2 0.090 0.2 0.2v0-0.2h0.2v-0.2c0-4.198 0.2-4.198 0.4-4.198v0zM14.201 2.599v0zM13.601 2.798v0zM11.403 2.998c0-0.2-0.2-0.2 0 0v0c0.050-0.053 0.121-0.085 0.2-0.085s0.149 0.033 0.2 0.085l1 0c-0.2 0-0.2 0-0.2 0.2h-0.4c-0.2 0.2-0.2 0.4-0.4 0.4v0c-0.2 0-0.2 0.2-0.4 0.2v0 0.2h-0.6c0.11 0 0.2 0.090 0.2 0.2h-0.6v0.2h0.4v0.4h-0.4v0.2h-0.2c-0.2 0-0.2-0.2-0.4 0v0-0.2h-0.2c-0.2 0-0.2 0-0.4-0.2v0 0.2h-0.809v-0.2h0.2l-0.2-0.2h0.4l0.2 0.2v-0.2h-0.4v-0.2h0.6c-0.11 0-0.2-0.090-0.2-0.2h-0.2l-0.2-0.2v-0.2h0.4c0.4 0.4 0.4 0.4 0.6 0.4h-0.2v-0.4c0.2 0 0.4-0.2 0.6-0.4h0.2c0.2 0 0.4-0.2 0.6-0.2h0.6v-0.2c-0.4 0-0.4 0 0 0.2zM17.199 3.598v0c0.2 0 0.2 0.2 0 0v0zM8.604 3.798v0 0.2h0.2c-0.11 0-0.2 0.090-0.2 0.2h-0.209l-0.2-0.2v0.2h-0.4l-0.2-0.2h0.6c-0.11 0-0.2-0.090-0.2-0.2v0q0 0.3 0.6 0v0zM17.6 3.998v0c-0.2-0.2 0-0.2 0 0v0zM17.4 3.998v0zM9.005 4.198v0zM17.4 4.198v0zM9.005 4.198v0zM7.206 4.597l0.2-0.2c0 0.11-0.090 0.2-0.2 0.2v0zM17.206 4.597v0zM17.406 4.797v0c0.2 0 0.2-0.2 0.4-0.2h-0.2l-0.2 0.2zM17.406 4.797v0c0.2-0.2 0.2 0 0.2 0h-0.2zM7.396 4.997h0.2v0.2c-0.11 0-0.2-0.090-0.2-0.2v0c0 0.2-0.2 0 0 0v0zM6.796 5.397v0c-0.2-0.4 0-0.2 0 0v0l0.2-0.2c0.11 0 0.2 0.090 0.2 0.2v0 0.4h-0.4c-0.2-0.2-0.2-0.2 0-0.4v0c-0.2 0-0.2 0.2-0.4 0.2h0.2c0-0.4 0-0.2 0.2-0.2v0zM7.995 5.797v0c0-0.4 0-0.4-0.2-0.4v0-0.2h0.4v0.2l0.2 0.2s0.4-0.2 0.6 0h0.2c0.11 0 0.2 0.090 0.2 0.2v0c-0.11 0-0.2 0.090-0.2 0.2v0.2h-0.999v-0.2h-0.2c0.2-0.2 0.2-0.2 0-0.2v0zM17.395 5.597v0c0-0.2 0.2-0.2 0 0v0l0.2-0.2h0.2c-0.2 0-0.2 0-0.4 0.2v0zM12.998 5.397v0zM24.998 5.797v0l0.2-0.2c0 0.2 0 0.2-0.2 0.2h0.4c0.4 0.2 0.6 0.6 0.999 0.999v0l0.4 0.4c0 0.11 0.090 0.2 0.2 0.2h0.2c0.646 1.089 1.315 2.402 1.905 3.757l-0.306 0.24v0.8h0.4c-0.2 0-0.2 0-0.2 0.2v0 0.4h0.2c0 0.2 0.2 0.2 0.4 0.2v0c0.18 0.631 0.321 1.378 0.396 2.145l-0.196 0.053v-0.2h-0.2v-0.4h-0.4c0 0.2 0 0.2 0.2 0.4h0.2v0.6h0.4v1.399h-0.4l-0.2 0.2c-0.2 0-0.2 0-0.4 0.2h-0.2v0.2h-0.2v-0.4c0-0.11-0.090-0.2-0.2-0.2v-0.2c0-0.11-0.090-0.2-0.2-0.2v0c0-0.2 0-0.2-0.2-0.4v0c-0.11 0-0.2-0.090-0.2-0.2v0-0.6c-0.11 0-0.2-0.089-0.2-0.2v0-0.2c0-0.11-0.090-0.2-0.2-0.2v0-0.2c-0.016-0.159-0.089-0.299-0.199-0.399l-0-0v-0.2c0-0.2 0-0.2 0.2-0.4v0-0.2h-0.8v0.2h-0.2v-0.2h-0.4v-0.2h0.999l0.2-0.2h0.8c0.11 0 0.2-0.089 0.2-0.2v0c-0.11 0-0.2-0.089-0.2-0.2v0l-0.2-0.2h0.2v-0.2l-0.2-0.2h-0.6c0.11 0 0.2 0.089 0.2 0.2h0.2c0-0.2 0-0.2-0.2-0.2v0c0.11 0 0.2-0.089 0.2-0.2h-0.2c-0.11 0-0.2 0.089-0.2 0.2v0c-0.11 0-0.2 0.089-0.2 0.2v0 0.2c0 0.11 0.090 0.2 0.2 0.2h-0.2l0.2 0.2v-0.2c0 0.11 0.090 0.2 0.2 0.2v0l0.2 0.2v0.2h-0.2v-0.2c-0.11 0-0.2-0.089-0.2-0.2h-0.2v-0.2l-0.4-0.4c-0.2 0 0-0.2-0.2-0.2v0-0.2h-0.2c0 0.11 0.090 0.2 0.2 0.2v0 0.2c0 0.11 0.090 0.2 0.2 0.2h0.2c0.2 0 0.2 0.2 0.4 0.2h-0.2v0.2c0-0.11-0.090-0.2-0.2-0.2v0l-0.4-0.4c-0.2 0 0-0.2-0.2-0.4h-0.2c-0.11 0-0.2 0.089-0.2 0.2h-0.4c-0.2 0.2 0 0.2 0 0.2h-0.4l-0.4 0.4h-0.2v0.2h-0.4c0-0.11-0.090-0.2-0.2-0.2v0s0.2-0.4 0-0.4v0-0.2h1.199v-0.8h0.6v-0.2h0.2v-0.2h0.4v-0.4h0.2v0.4s0.2 0 0 0.2h0.6c0.2 0 0.4 0 0.4-0.2h0.6v-0.2h0.4v-0.4h-0.6s-0.2 0 0-0.2v0-0.8s0.2-0.4 0.4-0.4h-0.6v0.2h-0.2v0.2l-0.4 0.4c-2.998-1.599-2.998-1.599-2.998-1.399v0 0.2c0 0.11 0.090 0.2 0.2 0.2v0l-0.2 0.2v0.4c0 0.11-0.090 0.2-0.2 0.2h-0.2v-0.2c-0.11 0-0.2-0.089-0.2-0.2v0-0.4c-0.11 0-0.2 0.089-0.2 0.2h-0.4v-0.2h0.8c0-0.11 0.090-0.2 0.2-0.2v0l0.2-0.2h0.2c0-0.11 0.090-0.2 0.2-0.2v0c0-0.11 0.090-0.2 0.2-0.2h0.2l0.2-0.2h0.2v-0.2h0.2c-0.6-1.599-0.6-1.399-0.4-1.599v0zM13.597 5.797v0zM7.396 5.997h0.8c-0.2 0.2-0.2 0.2-0.2 0.4h-0.4c0 0.2-0.2 0.2-0.2 0v0-0.4zM13.392 5.997v0zM6.996 5.997v0 0.2h0.2c0 0.11-0.090 0.2-0.2 0.2h-0.2c-0.2 0-0.2-0.2-0.4-0.2h-0.2l-0.2-0.2h0.2l0.2-0.2-0.2-0.2h0.2c0.4 0.4 0.4 0.4 0.6 0.4v0zM8.795 6.796c0-0.2-0.2-0.2-0.4-0.2v0-0.2c-0.2-0.2 0.4-0.4 0.6-0.4v0l-0.2 0.2c0 0.2 0 0.2 0.2 0.4h0.2v-0.2h0.2v-0.2h0.2c-0.11 0-0.2-0.090-0.2-0.2v0s0.4-0.2 0.6 0v0 0.8h0.4c0-0.2 0.2 0 0.4 0h0.2c-0.11 0-0.2 0.090-0.2 0.2h0.2c0 0.11 0.089 0.2 0.2 0.2v0-0.2h0.2v0.2h0.2v0.2h0.2c-0.11 0-0.2 0.090-0.2 0.2v0c0.11 0 0.2 0.090 0.2 0.2h-0.6c0 0.11 0.089 0.2 0.2 0.2v0 0.2h0.2c0.11 0 0.2 0.089 0.2 0.2h0.4c0.11 0 0.2 0.089 0.2 0.2h-0.2v0.2l-0.2 0.2v0.2h-0.2v-0.2h-0.2c0.4-0.8 0.4-0.8 0.2-0.999v0 0.2l-0.2-0.2v0.2h0.2v0.2h0.2c0.11 0 0.2 0.089 0.2 0.2v0c0-0.11-0.089-0.2-0.2-0.2v0 0.4c-0.11 0-0.2-0.089-0.2-0.2v0c0.2 0.4 0.2 0.4 0 0.2h-0.2c0 0.11 0.089 0.2 0.2 0.2v0l0.2 0.2h-0.4c-0.11 0-0.2-0.089-0.2-0.2v0c-0.11 0-0.2-0.089-0.2-0.2h-0.8c0-0.11 0.089-0.2 0.2-0.2h0.2v-0.2h0.4l-0.2-0.2c0.11 0 0.2-0.089 0.2-0.2v0-0.2c0-0.11-0.089-0.2-0.2-0.2h-0.2v-0.2h-0.2v-0.2h0.2l-0.2-0.2c0-0.2 0 0-0.2-0.2h-0.2c0.11 0 0.2 0.090 0.2 0.2h-0.4v0.2h-0.999c-0.2-0.2-0.2-0.2-0.2-0.4v0c-0.2 0.2-0.4 0.2-0.2 0h0.2zM5.397 6.596v0-0.4c0.2 0 0.4 0 0.4 0.2v0 0.2c0 0.11 0.090 0.2 0.2 0.2v0 0.2l0.2 0.2c0.2 0 0.4 0 0.4 0.2h-0.999c0 0.11-0.090 0.2-0.2 0.2h-1.199c0-0.11 0.090-0.2 0.2-0.2h0.2l0.6-0.6c0-0.4 0-0.4 0.2-0.2v0zM13.392 6.396h0.2l-0.2 0.2v-0.2zM13.992 6.396v0zM7.396 6.796v0c0.050-0.053 0.121-0.085 0.2-0.085s0.149 0.033 0.2 0.085l0 0v0.2l0.2 0.2v0.2c0.11 0 0.2-0.090 0.2-0.2v0l0.4 0.4h0.2c0-0.2 0-0.2 0.2-0.2v0-0.4h0.4v0.2h0.2v0.2c0 0.2 0.2 0.2 0.2 0.4v0c-0.2 0.2-0.2 0.2-0.4 0.2h-0.2l0.2 0.2h-0.2l-0.2 0.2h0.2v0.2l-0.2 0.2h-0.2v0.2h-0.4c0.11 0 0.2 0.089 0.2 0.2v0l-0.2 0.2c-0.092 0.174-0.162 0.375-0.198 0.588l0.198 0.012 0.2 0.2v0.2h0.2c0.158 0.023 0.295 0.095 0.4 0.2l0 0v0.2h0.8v0.6c0.2 0 0.2 0 0.2 0.2h0.2v-0.2c0.2 0 0-0.2 0-0.2v0-0.4c0.2 0 0.6-0.4 0.4-0.6v0l-0.2-0.2v-0.2h-0.2c0-0.11 0.089-0.2 0.2-0.2v0c0-0.11 0.089-0.2 0.2-0.2h0.6l0.2 0.2c0.11 0 0.2 0.089 0.2 0.2v0c-0.2 0 0 0.4 0 0.4v0 0.2c0.2 0 0.2-0.2 0.2 0h0.4v-0.4c0.105 0.104 0.177 0.242 0.199 0.396l0 0.004c0 0.2 0.2 0 0.2 0.2h0.2c0 0.11 0.089 0.2 0.2 0.2v0l0.2 0.2v0.2h0.2c0.2 0 0.2-0.2 0.4 0h0.2v0.2l-0.2 0.2h-0.2c0 0.11-0.089 0.2-0.2 0.2h-1.199c-0.4 0.2-0.4 0.2-0.6 0.2h-0.2c0 0.2-0.2 0.4-0.4 0.6v0c0.11 0 0.2-0.089 0.2-0.2v0c0.132-0.127 0.312-0.205 0.51-0.205 0.032 0 0.063 0.002 0.094 0.006l0.396-0-0.2 0.2v0.2c0 0.2 0.2 0 0.2 0.2h-0.2l-0.2 0.2v-0.2 0.4l0.2 0.2h-0.2c-0.2 0-0.4 0-0.4 0.2v0 0.8h-0.2v0.2h-0.2c0 0.11-0.089 0.2-0.2 0.2v0 0.2c-1.399 0.8-1.199 0.999-1.199 0.999v0 0.2c0-0.11-0.089-0.2-0.2-0.2h-0.6l0.2 0.2h-0.6l-0.2 0.2h-0.2v1.199l0.2 0.2c0 0.11 0.089 0.2 0.2 0.2h0.8c0.2 0 0.4-0.2 0.6 0v0l-0.2 0.2v0.6h0.8v0.6l0.2 0.2h0.4l0.2 0.2s0-0.2 0.2 0h-0.2v0.4c0.11 0 0.2-0.090 0.2-0.2v0 0.2h0.6l0.2 0.2h0.4l-0.8-0.4h0.4c0.11 0 0.2 0.090 0.2 0.2v0 0.2c0.11 0 0.2 0.090 0.2 0.2h0.6l0.2 0.2c0 0.2 0 0.4 0.2 0.4v0c0 0.11-0.089 0.2-0.2 0.2v0c-0.11 0-0.2 0.090-0.2 0.2v0 0.2h0.2v0.2h0.2c0.11 0 0.2-0.090 0.2-0.2v0-0.2h0.2c0.2 0 0.2 0 0.2 0.2v0c0.11 0 0.2 0.090 0.2 0.2v0 0.2l0.2-0.2h0.8c0.2 0 0.2 0.2 0.4 0.4h0.2l0.2 0.4c-0.023 0.158-0.095 0.295-0.2 0.4l-0 0v0.2l-0.2 0.2v0.8s-0.2 0 0 0.2v0 0.6c-0.11 0-0.2 0.090-0.2 0.2h-0.4c-0.104 0.105-0.242 0.177-0.396 0.199l-0.204 0v0.4c-0.8 0-0.8 0-0.999 0.2v0 0.2l-0.2 0.2c0-0.11 0.089-0.2 0.2-0.2v0 0.2l-0.2 0.2v0.2l-0.4 0.4h-0.8c0.11 0 0.2 0.090 0.2 0.2v0c0 0.2 0 0.2 0.2 0.2v0l-0.2 0.2v0.2c-0.104 0.105-0.242 0.177-0.396 0.199l-0.204 0v0.6h-0.4v0.2h0.2v0.2c-0.11 0-0.2 0.090-0.2 0.2v0 0.2h-0.2l-0.2 0.2 0.2 0.2h0.2c0 0.2-0.2 0.2-0.2 0.4v0 0.2c-0.405-0.385-0.865-0.718-1.366-0.983l-0.033-0.016v-0.2h-0.2l0.2-0.2v-0.6h-0.2v-0.2c0.2-0.4 0.2-0.6 0.4-0.6v0-0.6c0-0.2 0.2-0.4 0.2-0.6v0-2.798h-0.2v-0.2h-0.2c-0.214-0.015-0.385-0.185-0.4-0.398l-0-0.001v-0.4c0-0.11-0.089-0.2-0.2-0.2v0c0-0.2-0.2-0.4-0.2-0.6v0c0-0.11-0.089-0.2-0.2-0.2v0c-0.11 0-0.2-0.090-0.2-0.2v0-0.2c0-0.11 0.089-0.2 0.2-0.2v0s-0.2 0.2-0.2 0v0-0.4h0.2v-0.2h0.2v-0.8l0.2-0.2c0-0.2 0-0.2 0.2-0.2h0.2v-0.2h-0.2v0.2h-0.4c0-0.2 0-0.2-0.2-0.2v0-0.4l-0.2-0.2c-0.2 0-0.2-0.2-0.4-0.2h-0.2q-0.6-0.3-0.6-0.6h-0.6c-0.11 0-0.2-0.090-0.2-0.2h-0.4l-0.2-0.2h-0.2l-0.2-0.2h-0.2v-0.4c0-0.11-0.090-0.2-0.2-0.2h-0.2c0-0.2 0 0-0.2-0.2v0c-0.092-0.174-0.162-0.375-0.198-0.588l-0.401-0.012v0.4l0.2 0.2v0.4c0 0.11 0.090 0.2 0.2 0.2v0.8l-0.2-0.2v-0.4l-0.2-0.2h0.2v-0.2c-0.11 0-0.2-0.090-0.2-0.2v0-0.2c0-0.11-0.090-0.2-0.2-0.2h-0.4l-0.2-0.2h-0.2v-0.2l-0.6-1.799-0.2-0.2v-1.599h0.2v-0.2s-0.2 0 0-0.2v0-0.4h-0.4v-0.2h-0.2v-0.2c0.576-1.453 1.317-2.708 2.22-3.825l-0.021 0.027c0.11 0 0.2 0.090 0.2 0.2h0.6c0.11 0 0.2 0.090 0.2 0.2v0c0.11 0 0.2 0.090 0.2 0.2v0s-0.2 0 0-0.2h0.6c0.104 0.105 0.242 0.177 0.396 0.199l0.803 0v0.2c-0.2-0.2 0-0.2 0-0.2v0-0.2h0.2v-0.4h-0.2c-0.11 0-0.2-0.090-0.2-0.2h-0.2c0.2-0.4 0.2-0.4 0.4-0.4v0zM18.601 6.996h0.4v0.2s0 0.2-0.2 0v0c-0.11 0-0.2 0.090-0.2 0.2h-0.2s0 0.2-0.2 0h-0.6c0.11 0 0.2-0.090 0.2-0.2h-0.4c0.159-0.016 0.299-0.089 0.399-0.199l0-0c0.11 0 0.2 0.090 0.2 0.2v0h0.6c-0.2-0.2-0.2-0.2 0-0.2v0zM6.996 7.396v0-0.2l0.4 0.4h-0.2c-0.11 0-0.2-0.090-0.2-0.2zM10.394 7.995v-0.2h0.2v0.2c0-0.2-0.2 0-0.2 0v0zM8.795 8.795v0c0-0.2 0.2-0.4 0.2-0.6h0.2c0.11 0 0.2 0.089 0.2 0.2v0c0.2 0 0.2 0 0.2 0.2v0c0-0.11-0.089-0.2-0.2-0.2v0c-0.2 0-0.2 0.2-0.4 0.2v0-0.2l-0.2 0.4zM20.396 9.195v0 0h0.4c0 0.11-0.090 0.2-0.2 0.2v0c0.11 0 0.2 0.089 0.2 0.2v0 0.6s0.2 0 0 0.2h0.2l-0.2 0.2h-0.6l0.2-0.2h-0.2c0.11 0 0.2-0.089 0.2-0.2v0l0.2-0.2v-0.4h-0.2v-0.2h-0.2v-0.2c0 0.2 0.2 0 0.2 0v0zM22.594 9.395v0c0.11 0 0.2-0.089 0.2-0.2h0.2v0.2h-0.2c0-0.2-0.2-0.2-0.2 0v0zM23.194 9.595v0 0zM20.396 9.595v0zM19.796 9.794h0.4v0.2h-0.2v0.4h-0.6c0.088-0.237 0.225-0.438 0.399-0.599l0.001-0.001zM13.2 12.393v0c0.2-0.2 0-0.2 0 0v0l0.2-0.2c0.023-0.158 0.095-0.295 0.2-0.4l0.4-0v0.2l-0.2 0.2c0.11 0 0.2-0.089 0.2-0.2h-0.2c-0.4 0.4-0.4 0.4-0.6 0.4v0zM2.199 11.8h0.4c0 0.11 0.090 0.2 0.2 0.2v0c0.11 0 0.2 0.089 0.2 0.2h-0.4l-0.4-0.4zM29.399 12v0c-0.2-0.2 0-0.2 0 0v0zM22.603 12.4v0zM22.603 12.8v0c0.2-0.2 0.2-0.2 0.2 0h-0.2c0.2 0 0.2 0.2 0 0v0c0.2 0.2 0 0.2 0 0v0 0.2c-0.2 0 0-0.2 0-0.2zM12.803 12.8c0-0.11 0.089-0.2 0.2-0.2v0l-0.2 0.2c0.2 0 0.2-0.2 0.2 0h-0.2zM23.403 13.2v0c0.2 0 0.2 0 0.2-0.2v0 0.2c0 0.2-0.2 0-0.2 0zM22.803 13.2h0.2c0 0.2-0.2 0.2 0 0.2v0l-0.2 0.2c0 0.11 0.090 0.2 0.2 0.2h0.4c0 0.11 0.090 0.2 0.2 0.2h0.2l0.2 0.2c0.2 0 0-0.2 0-0.2v0c0-0.2 0.2-0.2 0.4-0.2v0 0.2h1.599c0.016 0.159 0.089 0.299 0.199 0.399l0 0v0.2c-0.2 0-0.2-0.2-0.2-0.4v0c0 0.2 0.2 0.2 0.2 0.4v0 0.2c0 0.2 0.2 0.2 0.2 0.4v0 0.2l0.2 0.2v0.4c0.11 0 0.2 0.089 0.2 0.2v0c0 0.2 0 0.4 0.2 0.4v0 0.2c0 0.11 0.090 0.2 0.2 0.2v0 0.2c0.11 0 0.2 0.090 0.2 0.2h-0.2l0.2 0.2h0.6c0.2 0 0.2 0 0.2-0.2v0 0.4c0 0.11-0.090 0.2-0.2 0.2v0c0 0.2-0.2 0.2-0.2 0.4v0c0 0.11-0.090 0.2-0.2 0.2v0c-0.2 0-0.2 0.2-0.4 0.2v0c0.8 0.6 0.8 0.8 0.6 0.999h-0.2v0.2c0 0.2 0 0.2-0.2 0.2v0 0.999c0.11 0 0.2 0.090 0.2 0.2v0 0.4l-0.2 0.2c-0.105 0.105-0.242 0.177-0.396 0.199l-0.004 0-0.2 0.2c-0.11 0-0.2 0.090-0.2 0.2v0 0.4c0 0.2-0.2 0.2-0.4 0.2v0l-0.2 0.2v0.2l-0.999 0.999h-0.8v-0.6c0-0.2 0-0.2-0.2-0.4v0l-0.2-0.2v-0.8c0.2 0 0-0.2 0-0.4v0c0-0.2-0.2-0.2-0.2-0.4v0l-0.2-0.2v-0.4c0.016-0.159 0.089-0.299 0.199-0.399l0-0v-0.4s-0.2-0.2 0-0.2v0-0.8l-0.4-0.4v-0.2c0.11 0 0.2-0.090 0.2-0.2v0-0.4h-0.6c0 0.2-0.2 0-0.2-0.2v0l-0.2-0.2h-0.6c-0.2 0-0.2 0.2-0.4 0.2h-1.199c-0.11 0-0.2-0.090-0.2-0.2h-0.2c0-0.11-0.090-0.2-0.2-0.2v0c-0.11 0-0.2-0.090-0.2-0.2v0c-0.11 0-0.2-0.090-0.2-0.2v0-0.2h-0.2v-0.2c0-0.11-0.090-0.2-0.2-0.2v0l0.2-0.2v-0.2c0-0.2 0.2-0.4 0-0.4v0-0.4c0-0.11 0.090-0.2 0.2-0.2v0c0.11 0 0.2-0.089 0.2-0.2v0-0.2l0.2-0.2v-0.2h0.2c0.105-0.105 0.242-0.177 0.396-0.199l0.004-0v-0.6l-0.4 0.4c0.11 0 0.2-0.089 0.2-0.2v0c0-0.11 0.090-0.2 0.2-0.2v0c0 0.11 0.090 0.2 0.2 0.2h0.6l0.2-0.2h0.8c0.6-0.2 0.6-0.4 0.8-0.4zM26.801 13.599v0l-0.2 0.2c-0.2-0.2 0-0.2 0.2-0.2v0zM25.202 13.599h0.2c0 0.2-0.2 0.2-0.2 0zM10.602 14.599v0zM10.602 14.799v0zM9.003 17.197v0l0.2-0.2h0.4v0.2h0.4c0.2 0 0.2 0 0.2 0.2h-0.999v-0.2h-0.608c0.6-0.2 0.6-0.2 0.4 0v0zM11.194 17.397c0.2 0.2 0.2 0 0 0v0c0.101 0.111 0.241 0.184 0.397 0.2l-0.197 0-0.2 0.2h-0.2v-0.2h-0.2c0.2-0.2 0.2-0.2 0.4-0.2v0zM11.793 17.797v0c0-0.2 0.2-0.2 0.2 0h-0.2zM9.994 17.797v0zM22.594 18.996v0zM11.794 19.796v0c0.2 0 0.2-0.2 0 0v0c0.2-0.2 0.2 0 0 0zM13.793 21.595v-0.2h0.4v0.2h-0.4zM28.994 21.595v0c-0.101 0.693-0.386 1.306-0.804 1.805l0.005-0.006v-0.6c0.105-0.105 0.177-0.242 0.199-0.396l0-0.004v-0.4c0.237-0.088 0.438-0.225 0.599-0.399l0.001-0.001zM9.993 28.791v0zM25.4 12.4v0zM10.199 14.199v0zM10.399 14.399v0zM10.399 14.399v0zM10.399 14.399v0zM10.399 14.399v0zM9.2 19.196v0c0.2 0.2 0.2 0 0 0z"></path>
</svg>
