<!-- Generated by IcoMoon.io -->
<svg version="1.1" xmlns="http://www.w3.org/2000/svg" width="32" height="32" viewBox="0 0 32 32">
<title>qrcode</title>
<path fill="#fff" d="M5.334 5.334h8v8h-8v-8zM26.668 5.334v8h-8v-8h8zM18.668 20h2.666v-2.666h-2.668v-2.668h2.666v2.666h2.668v-2.666h2.666v2.666h-2.666v2.666h2.666v4.001h-2.666v2.666h-2.666v-2.666h-4v2.666h-2.668v-5.332h4v-1.334zM21.332 20v4h2.668v-4h-2.666zM5.334 26.666v-8h8v8h-8zM8 8v2.666h2.666v-2.666h-2.666zM21.334 8v2.666h2.666v-2.666h-2.666zM8 21.334v2.666h2.666v-2.666h-2.666zM5.334 14.666h2.666v2.666h-2.666v-2.666zM12 14.666h5.334v5.334h-2.668v-2.666h-2.666v-2.668zM14.666 8h2.666v5.334h-2.666v-5.334zM2.666 2.666v5.334h-2.666v-5.334c0-1.473 1.194-2.666 2.666-2.666v0h5.334v2.666h-5.334zM29.334 0c1.473 0 2.666 1.194 2.666 2.666v0 5.334h-2.666v-5.334h-5.334v-2.666h5.334zM2.666 24v5.334h5.334v2.666h-5.334c-1.473 0-2.666-1.194-2.666-2.666v0-5.334h2.666zM29.332 29.334v-5.334h2.668v5.334c0 1.473-1.194 2.666-2.666 2.666v0h-5.334v-2.666z"></path>
</svg>
