<svg height="1024" viewBox="0 0 1280 1024" width="1280" xmlns="http://www.w3.org/2000/svg"><path d="m144.696 576.557 217.043 83.478v-82.365l-217.043-81.252zm-70.122 71.234v-289.391l356.174 143.583v287.165zm-71.235-432.974-3.339 1.113 3.339 1.113v585.461l538.713 201.461 537.6-201.461v-587.687l-2.449 1.113-537.377-215.93z" fill="#717373"/><path d="m770.894 930.95c-53.364-53.341-86.372-127.043-86.372-208.455 0-.046 0-.091 0-.137v.007c.316-162.773 132.184-294.64 294.926-294.956h.03.223c162.777 0 294.734 131.957 294.734 294.734v.235-.012c-.316 162.773-132.184 294.64-294.926 294.956h-.253c-81.378-.027-155.042-33.029-208.361-86.371z" fill="#ffca38"/><path d="m847.026 800.278c0-55.652 85.704-70.122 160.278-72.348v93.496l169.183-141.357-169.183-140.243v84.591c-103.513 7.791-225.948 69.009-224.835 163.617 0 110.191 183.652 116.87 228.174 116.87v-20.035c0 1.113-163.617-10.017-163.617-84.591z" fill="#fff"/></svg>