<!-- Generated by IcoMoon.io -->
<svg version="1.1" xmlns="http://www.w3.org/2000/svg" width="40" height="32" viewBox="0 0 40 32">
<title>redeliver</title>
<path fill="#fff" d="M0.105 6.757v0l-0.105 0.035 0.105 0.035v18.415l16.944 6.337 16.909-6.337v-18.485l-0.245 0.105 0.175-0.070-16.909-6.792zM2.065 7.777l14.809-5.671 14.774 5.671-14.809 5.671zM2.345 20.38v-9.102l11.204 4.515v9.029zM4.551 18.139l6.827 2.621v-2.591l-6.827-2.556zM2.065 7.775l14.809-5.671 14.774 5.671-14.809 5.671z"></path>
<path fill="#f37424" d="M21.532 22.722c0 0.002 0 0.005 0 0.007 0 5.12 4.151 9.271 9.271 9.271 0.003 0 0.005 0 0.008 0h-0c5.12-0.010 9.268-4.158 9.278-9.277v-0.001c0-0.002 0-0.005 0-0.007 0-5.12-4.151-9.271-9.271-9.271-0.003 0-0.005 0-0.008 0h0c-5.12 0.010-9.268 4.158-9.278 9.277zM35.010 19.256l1.646 1.471-7.072 7.807-1.646-1.471-3.326-3.010 1.471-1.646 3.326 3.010z"></path>
<path fill="#f37424" d="M35.010 19.256l1.646 1.471-7.072 7.807-1.646-1.471-3.326-3.012 1.471-1.646 3.361 3.010z"></path>
<path fill="#fff" d="M26.644 25.171c0-1.748 2.696-2.205 5.042-2.276v2.94l5.321-4.446-5.321-4.411v2.661c-3.256 0.245-7.107 2.17-7.072 5.147 0 3.466 5.777 3.676 7.177 3.676v-0.631c0 0.036-5.147-0.313-5.147-2.659z"></path>
</svg>
