<!-- Generated by IcoMoon.io -->
<svg version="1.1" xmlns="http://www.w3.org/2000/svg" width="34" height="32" viewBox="0 0 34 32">
<title>route</title>
<path fill="#e1e1e1" d="M16.865 0s-7.361 0-7.361 8.26v0c0 6.373 7.361 13.88 7.361 13.88v0s7.443-7.443 7.443-13.914v0c0-8.124-7.136-8.226-7.425-8.226v0zM14.447 7.391c0-1.345 1.091-2.436 2.436-2.436v0c0 0 0 0 0 0 1.335 0 2.417 1.082 2.417 2.417 0 0.007-0 0.013-0 0.020v-0.001c0 1.335-1.082 2.417-2.417 2.417v0c-0.006 0-0.012 0-0.019 0-1.335 0-2.417-1.082-2.417-2.417 0-0 0-0 0-0zM0.005 30.297l9.503 1.703 1.362-15.429c-0.574-0.964-1.113-2.087-1.552-3.259l-0.048-0.147-5.672-0.851zM23.013 16.673l1.158 13.624 9.98 1.703-3.696-18.648-5.586-0.733c-0.544 1.575-1.172 2.925-1.916 4.197zM11.926 31.982l9.759-1.703-0.597-10.644c-1.342 1.9-2.724 3.567-4.22 5.123l0.013-0.014c-1.48-1.572-2.862-3.278-4.112-5.084l-0.095-0.145z"></path>
</svg>
