<!-- Generated by IcoMoon.io -->
<svg version="1.1" xmlns="http://www.w3.org/2000/svg" width="46" height="32" viewBox="0 0 46 32">
<title>sidetruck</title>
<path fill="#e1e1e1" d="M13.905 21.036c-1.852 0.005-3.352 1.505-3.357 3.357 0.046 1.836 1.522 3.311 3.353 3.358 1.859 0 3.361-1.503 3.361-3.357s-1.503-3.357-3.357-3.357zM16.148 7.607h-4.481c-2.125 0-5.595 4.588-5.595 7.834v5.595c0.004 1.235 1.004 2.235 2.238 2.239h1.232c0.516-1.947 2.263-3.357 4.338-3.357 1.782 0 3.322 1.041 4.044 2.547 0.292-0.309 0.462-0.745 0.462-1.22 0-0.034-0.001-0.067-0.002-0.101l0-11.298c-0.004-1.233-1.002-2.232-2.234-2.238zM16.148 15.441c0.001 0.019 0.002 0.041 0.002 0.064 0 0.584-0.474 1.057-1.057 1.057-0.024 0-0.048-0.001-0.071-0.002l-5.591 0c-0.019 0.001-0.041 0.002-0.063 0.002-0.584 0-1.057-0.474-1.057-1.057 0-0.022 0.001-0.044 0.002-0.066l-0-1.34c0-0.895 1.791-4.253 3.245-4.253h3.47c0.020-0.001 0.043-0.002 0.067-0.002 0.584 0 1.057 0.474 1.057 1.057 0 0.023-0.001 0.045-0.002 0.068zM30.691 21.036c-1.852 0.005-3.352 1.505-3.357 3.357 0 1.854 1.503 3.358 3.357 3.358s3.357-1.503 3.357-3.357c0-1.854-1.503-3.357-3.357-3.357zM37.405 4.25h-14.543c-0.001 0-0.002 0-0.003 0-1.237 0-2.241 1.001-2.245 2.238v14.543c0.004 1.235 1.004 2.235 2.238 2.239h3.475c0.511-1.945 2.254-3.357 4.327-3.357 0.012 0 0.026 0 0.038 0 2.073 0.018 3.817 1.419 4.353 3.325l2.357 0.032c1.235-0.004 2.235-1.004 2.239-2.238v-14.543c-0.004-1.234-1.002-2.234-2.236-2.239z"></path>
</svg>
