<!-- Generated by IcoMoon.io -->
<svg version="1.1" xmlns="http://www.w3.org/2000/svg" width="45" height="32" viewBox="0 0 45 32">
<title>stop-cloned</title>
<path fill="#fff" d="M31.365 6.663l-4.679 1.876v-3.214l-13.383-5.325-13.302 5.382v14.96l13.351 4.994 4.705-1.763v3.433l13.351 4.994 13.331-4.994v-15.015z"></path>
<path fill="#02b1eb" d="M9.453 14.322l-4.74-1.775v1.748l4.74 1.826z"></path>
<path fill="#02b1eb" d="M43.141 13.083l-11.738-4.714-6.27 2.511v-4.484l-0.052 0.022-11.736-4.714-11.79 4.718 0.073 0.024v12.787l11.762 4.4 6.294-2.359v4.624l11.762 4.4 11.741-4.4v-12.837zM10.961 18.938l-7.779-3.087v-6.32l7.779 3.136zM29.022 25.604l-7.779-3.087v-6.32l7.779 3.136z"></path>
<path fill="#02b1eb" d="M27.521 20.988l-4.74-1.775v1.748l4.74 1.826z"></path>
<path fill="#fff" d="M10.961 18.932v-6.272l-7.779-3.136v6.32zM4.713 12.541l4.74 1.775v1.799l-4.74-1.826z"></path>
<path fill="#fff" d="M29.020 19.329l-7.779-3.136v6.32l7.779 3.087zM27.514 22.783l-4.74-1.826v-1.748l4.74 1.775z"></path>
</svg>
