<!-- Generated by IcoMoon.io -->
<svg version="1.1" xmlns="http://www.w3.org/2000/svg" width="27" height="32" viewBox="0 0 27 32">
<title>truck-front</title>
<path fill="#fff" d="M25.713 15.785l0.001-0.001c-1.867 0-1.527 0.849-1.527 1.273 0 0.17 0 0.17-0.17 0.254l-1.697-6.024c-0.072-0.389-0.409-0.68-0.813-0.68-0.013 0-0.025 0-0.037 0.001l0.002-0h-15.443c-0.424 0.029-0.779 0.298-0.931 0.672l-0.003 0.007-1.696 6.025s-0.17-0.17-0.17-0.254c0-0.424 0.34-1.273-1.527-1.273s-1.699 0.848-1.699 1.527c0 0.594 1.273 0.594 1.527 0.594 0.255-0.043 0.549-0.068 0.848-0.068s0.593 0.025 0.879 0.073l-0.031-0.004-0.34 1.273h0.424v3.395h-0.932v-3.395h-0.849c-0.476 0.026-0.862 0.383-0.933 0.843l-0.001 0.006v7.721c0.042 0.477 0.441 0.849 0.925 0.849 0.003 0 0.006 0 0.008-0h0.933v1.697c0 0.002-0 0.005-0 0.007 0 0.938 0.76 1.698 1.698 1.698 0.059 0 0.118-0.003 0.176-0.009l-0.007 0.001c0.051 0.005 0.109 0.008 0.169 0.008 0.938 0 1.698-0.76 1.698-1.698 0-0.003 0-0.005-0-0.008v0-1.697h15.105v1.697c0.095 0.955 0.894 1.695 1.867 1.695s1.771-0.74 1.866-1.687l0.001-0.008v-1.697h0.933c0.476-0.026 0.862-0.383 0.933-0.843l0.001-0.006v-7.721c-0.043-0.477-0.441-0.849-0.926-0.849-0.003 0-0.005 0-0.008 0h-0.933v3.395h-0.933v-3.395h0.424l-0.34-1.273c0.255-0.041 0.549-0.064 0.848-0.064s0.593 0.023 0.88 0.069l-0.032-0.004c0.34 0 1.527 0.17 1.527-0.594-0-0.679 0.17-1.527-1.697-1.527zM4.328 27.878c-1.060 0-1.92-0.86-1.92-1.92s0.86-1.92 1.92-1.92c1.060 0 1.92 0.86 1.92 1.92v0c0 0 0 0 0 0 0 1.060-0.859 1.92-1.92 1.92 0 0-0 0-0 0v0zM17.398 26.73v0.002h-7.552v-1.699h7.552zM6.26 16.633c-0.509 0-0.763-0.424-0.679-0.933l0.763-3.395c0.105-0.43 0.48-0.748 0.932-0.763l0.002-0h12.728c0.453 0.016 0.828 0.333 0.932 0.757l0.001 0.007 0.679 3.395c0.087 0.509-0.17 0.933-0.679 0.933zM25.096 25.958c0 0 0 0 0 0 0 1.060-0.86 1.92-1.92 1.92s-1.92-0.86-1.92-1.92c0-1.060 0.86-1.92 1.92-1.92 0 0 0 0 0 0v0c1.060 0 1.92 0.86 1.92 1.92v0z"></path>
<path fill="#fff" d="M12.937 5.497l-0.151-0.205c-0.388 0.205-0.744 0.42-1.078 0.636l0.183 0.259c0.302-0.231 0.643-0.459 0.999-0.665l0.047-0.025z"></path>
<path fill="#fff" d="M14.36 4.796l-0.108-0.14c-0.471 0.161-0.863 0.329-1.24 0.521l0.054-0.025 0.14 0.194c0.377-0.194 0.755-0.388 1.154-0.55z"></path>
<path fill="#fff" d="M11.654 6.37l-0.194-0.27c-0.4 0.269-0.744 0.531-1.073 0.812l0.016-0.014 0.259 0.388c0.305-0.328 0.629-0.628 0.974-0.903l0.018-0.014z"></path>
<path fill="#fff" d="M15.848 4.279c-0.501 0.066-0.95 0.168-1.382 0.307l0.056-0.015 0.086 0.119c0.334-0.142 0.747-0.282 1.171-0.394l0.069-0.015z"></path>
<path fill="#fff" d="M3.229 17.058c0 0.084 0.17 0.254 0.17 0.254l1.696-6.025c0.155-0.381 0.509-0.65 0.93-0.679l0.003-0h15.443c0.011-0.001 0.023-0.001 0.036-0.001 0.405 0 0.741 0.291 0.812 0.675l0.001 0.005 1.697 6.025c0.17-0.084 0.17-0.084 0.17-0.254 0-0.403-0.303-1.189 1.274-1.265v-12.99c-0.077-1.563-1.363-2.802-2.938-2.802-0.042 0-0.083 0.001-0.124 0.003l0.006-0h-17.394c-0.035-0.001-0.076-0.002-0.117-0.002-1.576 0-2.862 1.239-2.938 2.795l-0 0.007v12.991c1.578 0.076 1.275 0.862 1.275 1.265zM10.155 7.104c-0.237 0.205-0.431 0.388-0.593 0.539 0.561-2.006 2.415-5.176 8.55-4.194 0 0-0.679 0.129-1.143 1.52 0 0-1.79 6.2-7.548 4.237 0.274-0.645 0.622-1.2 1.042-1.691l-0.007 0.009z"></path>
<path fill="#fff" d="M2.38 19.694c0.236 0.396 0.549 0.722 0.921 0.966l0.011 0.007v-1.488h-0.424l0.34-1.273c-0.234-0.037-0.503-0.057-0.777-0.057-0.175 0-0.347 0.008-0.517 0.025l0.022-0.002v0.458c0.019 0.31 0.084 0.599 0.188 0.869l-0.007-0.020h0.243z"></path>
<path fill="#fff" d="M24.186 17.906l0.34 1.273h-0.424v1.392c0.382-0.266 0.695-0.603 0.925-0.995l0.008-0.015v-0.382h0.188c0.12-0.273 0.204-0.589 0.237-0.921l0.001-0.013v-0.372c-0.149-0.014-0.322-0.022-0.497-0.022-0.274 0-0.544 0.020-0.807 0.058l0.030-0.004z"></path>
</svg>
