<!-- Generated by IcoMoon.io -->
<svg version="1.1" xmlns="http://www.w3.org/2000/svg" width="39" height="32" viewBox="0 0 39 32">
<title>undeliverable</title>
<path fill="#fff" d="M0.105 6.72v0l-0.105 0.035 0.105 0.035v18.316l16.853 6.303 16.819-6.303v-18.386l-0.243 0.105 0.174-0.069-16.819-6.755zM2.055 7.73l14.73-5.642 14.695 5.642-14.73 5.64zM2.333 20.266v-9.053l11.142 4.491v8.985zM4.527 18.003l6.791 2.612v-2.612l-6.791-2.542zM2.055 7.732l14.73-5.642 14.695 5.642-14.73 5.64z"></path>
<path fill="#ee3e25" d="M20.335 22.668c0 5.154 4.178 9.332 9.332 9.332v0c5.154 0 9.332-4.178 9.332-9.332v0c0-5.154-4.178-9.332-9.332-9.332v0c-5.154 0-9.332 4.178-9.332 9.332zM32.561 17.968l1.776 1.776-2.89 2.925 2.855 2.855-1.776 1.776-2.855-2.855-2.855 2.855-1.776-1.776 2.855-2.855-2.925-2.925 1.776-1.776 2.89 2.89z"></path>
<path fill="#fff" d="M32.557 17.968l1.776 1.776-2.886 2.924 2.855 2.855-1.779 1.776-2.856-2.85-2.89 2.855-1.775-1.779 2.89-2.855-2.925-2.925 1.776-1.776 2.925 2.925z"></path>
</svg>
