<svg enable-background="new 0 0 1247 1024" viewBox="0 0 1247 1024" xmlns="http://www.w3.org/2000/svg"><path d="m144.7 575.4 217 83.5v-83.5l-217-81.3zm-70.1 72.4v-289.4l356.1 143.6v287.2zm-71.3-433-3.3 1.1 3.3 1.1v585.5l538.8 201.5 537.6-201.5v-587.7l-2.4 1.1-537.5-215.9z" fill="#717373"/><path d="m1040.7 574.3 56.8 56.8-92.4 93.5 91.3 91.3-56.8 56.8-91.3-91.3-91.3 91.2-56.8-56.8 91.3-91.3-93.5-93.5 56.8-56.8 92.4 92.4zm-390.7 150.3c0 164.7 133.6 298.3 298.3 298.3s298.3-133.6 298.3-298.3c0-164.7-133.6-298.3-298.3-298.3s-298.3 133.5-298.3 298.3z" fill="#ee3e25"/><path d="m1040.7 574.3 56.8 56.8-92.4 93.5 91.3 91.3-56.8 56.8-91.3-91.3-92.4 91.3-56.8-56.8 92.4-91.3-93.5-93.5 56.8-56.8 93.5 93.5z" fill="#fff"/></svg>