<!-- Generated by IcoMoon.io -->
<svg version="1.1" xmlns="http://www.w3.org/2000/svg" width="34" height="32" viewBox="0 0 34 32">
<title>user</title>
<path fill="#e1e1e1" d="M17.606 0h-1.061c-4.879 0-7 4.667-6.788 9.778v0c-0.636 0-1.273 0.667-1.061 2.227v0c-0 0.017-0.001 0.038-0.001 0.058 0 1.040 0.599 1.94 1.47 2.374l0.015 0.007c0.636 3.111 1.273 4.667 1.697 5.111v0c0.393 0.499 0.688 1.096 0.842 1.747l0.006 0.031q-0.318 0-0.636 0.667v0c-0.27 0.77-0.899 1.352-1.68 1.552l-0.017 0.004c-1.061 0.223-2.97 1.112-5.091 1.778v0c-2.121 0.666-5.091 1.777-5.091 2.666v0c0.004 0.12 0.006 0.261 0.006 0.402 0 0.879-0.079 1.739-0.231 2.574l0.013-0.087c0.212 0.889 1.061 1.112 2.121 1.112h29.697c1.061 0 1.909-0.223 2.121-1.112v0-2.889c0-1.112-2.97-2-5.091-2.666v0c-2.121-0.667-4.030-1.556-5.091-1.778v0c-0.863-0.064-1.558-0.711-1.696-1.545l-0.001-0.011c-0.212-0.444-0.424-0.444-0.424-0.667v0c0-0.667 0.424-1.112 0.849-1.778v0c0.424-0.444 1.061-2.227 1.697-5.111v0c0.636-0.444 1.485-0.444 1.697-2.439v0c0.212-1.778-0.424-2.227-1.061-2.439v0c-0.212-4.899-2.121-9.566-7.212-9.566z"></path>
</svg>
