<!-- Generated by IcoMoon.io -->
<svg version="1.1" xmlns="http://www.w3.org/2000/svg" width="51" height="32" viewBox="0 0 51 32">
<title>view</title>
<path fill="#e1e1e1" d="M0 16s3.2 16 25.6 16v0c22.4 0 25.6-16 25.6-16v0c-4.476-9.528-13.992-16.006-25.022-16.006-0.203 0-0.406 0.002-0.608 0.007l0.030-0.001c-0.172-0.004-0.375-0.006-0.578-0.006-11.029 0-20.545 6.479-24.951 15.838l-0.071 0.168zM16 16c0.016-5.296 4.305-9.584 9.598-9.6h0.002c0.052-0.001 0.112-0.002 0.173-0.002 5.207 0 9.428 4.221 9.428 9.428 0 0.061-0.001 0.122-0.002 0.182l0-0.009c0.001 0.051 0.002 0.112 0.002 0.173 0 5.207-4.221 9.428-9.428 9.428-0.061 0-0.122-0.001-0.182-0.002l0.009 0c-0.052 0.001-0.112 0.002-0.173 0.002-5.207 0-9.428-4.221-9.428-9.428 0-0.061 0.001-0.122 0.002-0.182l-0 0.009zM19.2 16.32c0.010 3.531 2.869 6.39 6.399 6.4h0.001c3.531-0.010 6.39-2.869 6.4-6.399v-0.001c-0.010-3.531-2.869-6.39-6.399-6.4h-0.001c-3.531 0.010-6.39 2.869-6.4 6.399v0.001z"></path>
</svg>
